<svg width="37" height="44" viewBox="0 0 37 44" fill="none" xmlns="http://www.w3.org/2000/svg">
<g id="u:angle-down">
<path id="Vector" d="M10.7917 27.1883C11.0805 27.5298 11.4713 27.7215 11.8786 27.7215C12.2858 27.7215 12.6766 27.5298 12.9654 27.1883L18.5 20.6983L23.9575 27.1883C24.2464 27.5298 24.6371 27.7215 25.0444 27.7215C25.4517 27.7215 25.8424 27.5298 26.1313 27.1883C26.2758 27.0179 26.3904 26.8151 26.4687 26.5917C26.547 26.3683 26.5873 26.1287 26.5873 25.8867C26.5873 25.6446 26.547 25.405 26.4687 25.1816C26.3904 24.9582 26.2758 24.7554 26.1313 24.585L19.5946 16.8117C19.4513 16.6398 19.2808 16.5034 19.0929 16.4104C18.905 16.3173 18.7035 16.2694 18.5 16.2694C18.2965 16.2694 18.095 16.3173 17.9071 16.4104C17.7193 16.5034 17.5487 16.6398 17.4054 16.8117L10.7917 24.585C10.6472 24.7554 10.5325 24.9582 10.4542 25.1816C10.3759 25.405 10.3357 25.6446 10.3357 25.8867C10.3357 26.1287 10.3759 26.3683 10.4542 26.5917C10.5325 26.8151 10.6472 27.0179 10.7917 27.1883Z" fill="#202020"/>
</g>
</svg>
