<svg width="41" height="48" viewBox="0 0 41 48" fill="none" xmlns="http://www.w3.org/2000/svg">
<g id="u:exchange">
<path id="Vector" d="M30.75 20C30.75 19.4696 30.57 18.9609 30.2496 18.5858C29.9292 18.2107 29.4947 18 29.0416 18H9.24206L13.1712 13.42C13.4929 13.0434 13.6736 12.5326 13.6736 12C13.6736 11.4674 13.4929 10.9566 13.1712 10.58C12.8495 10.2034 12.4132 9.99182 11.9583 9.99182C11.5034 9.99182 11.0671 10.2034 10.7454 10.58L3.91206 18.58C3.67501 18.8613 3.51444 19.2184 3.45059 19.6064C3.38674 19.9944 3.42248 20.3958 3.55331 20.76C3.68147 21.1252 3.8991 21.4379 4.17879 21.6586C4.45848 21.8792 4.78771 21.998 5.12497 22H29.0416C29.4947 22 29.9292 21.7893 30.2496 21.4142C30.57 21.0391 30.75 20.5304 30.75 20ZM37.4466 27.24C37.3185 26.8748 37.1008 26.5621 36.8212 26.3414C36.5415 26.1208 36.2122 26.002 35.875 26H11.9583C11.5052 26 11.0707 26.2107 10.7503 26.5858C10.43 26.9609 10.25 27.4696 10.25 28C10.25 28.5304 10.43 29.0391 10.7503 29.4142C11.0707 29.7893 11.5052 30 11.9583 30H31.7579L27.8287 34.58C27.6686 34.7659 27.5415 34.9871 27.4548 35.2309C27.3681 35.4746 27.3234 35.736 27.3234 36C27.3234 36.264 27.3681 36.5254 27.4548 36.7692C27.5415 37.0129 27.6686 37.2341 27.8287 37.42C27.9875 37.6075 28.1765 37.7563 28.3847 37.8578C28.5928 37.9593 28.8161 38.0116 29.0416 38.0116C29.2672 38.0116 29.4904 37.9593 29.6986 37.8578C29.9068 37.7563 30.0957 37.6075 30.2546 37.42L37.0879 29.42C37.3249 29.1388 37.4855 28.7816 37.5494 28.3936C37.6132 28.0057 37.5775 27.6042 37.4466 27.24Z" fill="black"/>
</g>
</svg>
