<svg width="80" height="100" viewBox="0 0 80 100" fill="none" xmlns="http://www.w3.org/2000/svg">
<path d="M61.875 0H18.105C16.985 0 11.11 0.325 5.59 6.755C0.155 13.08 0 19.31 0 20V75C0 77.6522 1.05357 80.1957 2.92893 82.0711C4.8043 83.9464 7.34784 85 10 85H15L5 100H16.765L20.1 95H60.1L63.485 100H75L65 85H70C72.6522 85 75.1957 83.9464 77.0711 82.0711C78.9464 80.1957 80 77.6522 80 75V20C80.005 19.06 79.84 12.83 74.355 6.675C68.575 0.185 62.545 0 61.875 0ZM30 10H50V20H30V10ZM17.5 75C15.5102 74.9993 13.6022 74.2083 12.1957 72.8008C10.7891 71.3933 9.99934 69.4848 10 67.495C10.0007 65.5052 10.7917 63.5972 12.1992 62.1907C13.6067 60.7841 15.5152 59.9943 17.505 59.995C19.4948 59.9957 21.4028 60.7867 22.8093 62.1942C24.2159 63.6017 25.0057 65.5102 25.005 67.5C25.0043 69.4898 24.2133 71.3978 22.8058 72.8043C21.3983 74.2109 19.4898 75.0007 17.5 75ZM62.5 75C60.5102 74.9993 58.6022 74.2083 57.1957 72.8008C55.7891 71.3933 54.9993 69.4848 55 67.495C55.0007 65.5052 55.7917 63.5972 57.1992 62.1907C58.6067 60.7841 60.5152 59.9943 62.505 59.995C64.4948 59.9957 66.4028 60.7867 67.8093 62.1942C69.2159 63.6017 70.0057 65.5102 70.005 67.5C70.0043 69.4898 69.2133 71.3978 67.8058 72.8043C66.3983 74.2109 64.4898 75.0007 62.5 75ZM70 50H10V30H70V50Z" fill="white"/>
</svg>
